<?xml version="1.0" encoding="utf-8"?>
<!-- Generated by IcoMoon.io -->
<!DOCTYPE svg PUBLIC "-//W3C//DTD SVG 1.1//EN" "http://www.w3.org/Graphics/SVG/1.1/DTD/svg11.dtd">
<svg version="1.1" xmlns="http://www.w3.org/2000/svg" xmlns:xlink="http://www.w3.org/1999/xlink" width="32" height="32" viewBox="0 0 32 32">
<g>
	<line stroke-width="1" x1="16" y1="0" x2="16" y2="512" stroke="#449FDB" opacity="0.3"></line>
	<line stroke-width="1" x1="32" y1="0" x2="32" y2="512" stroke="#449FDB" opacity="1"></line>
	<line stroke-width="1" x1="48" y1="0" x2="48" y2="512" stroke="#449FDB" opacity="0.3"></line>
	<line stroke-width="1" x1="64" y1="0" x2="64" y2="512" stroke="#449FDB" opacity="1"></line>
	<line stroke-width="1" x1="80" y1="0" x2="80" y2="512" stroke="#449FDB" opacity="0.3"></line>
	<line stroke-width="1" x1="96" y1="0" x2="96" y2="512" stroke="#449FDB" opacity="1"></line>
	<line stroke-width="1" x1="112" y1="0" x2="112" y2="512" stroke="#449FDB" opacity="0.3"></line>
	<line stroke-width="1" x1="128" y1="0" x2="128" y2="512" stroke="#449FDB" opacity="1"></line>
	<line stroke-width="1" x1="144" y1="0" x2="144" y2="512" stroke="#449FDB" opacity="0.3"></line>
	<line stroke-width="1" x1="160" y1="0" x2="160" y2="512" stroke="#449FDB" opacity="1"></line>
	<line stroke-width="1" x1="176" y1="0" x2="176" y2="512" stroke="#449FDB" opacity="0.3"></line>
	<line stroke-width="1" x1="192" y1="0" x2="192" y2="512" stroke="#449FDB" opacity="1"></line>
	<line stroke-width="1" x1="208" y1="0" x2="208" y2="512" stroke="#449FDB" opacity="0.3"></line>
	<line stroke-width="1" x1="224" y1="0" x2="224" y2="512" stroke="#449FDB" opacity="1"></line>
	<line stroke-width="1" x1="240" y1="0" x2="240" y2="512" stroke="#449FDB" opacity="0.3"></line>
	<line stroke-width="1" x1="256" y1="0" x2="256" y2="512" stroke="#449FDB" opacity="1"></line>
	<line stroke-width="1" x1="272" y1="0" x2="272" y2="512" stroke="#449FDB" opacity="0.3"></line>
	<line stroke-width="1" x1="288" y1="0" x2="288" y2="512" stroke="#449FDB" opacity="1"></line>
	<line stroke-width="1" x1="304" y1="0" x2="304" y2="512" stroke="#449FDB" opacity="0.3"></line>
	<line stroke-width="1" x1="320" y1="0" x2="320" y2="512" stroke="#449FDB" opacity="1"></line>
	<line stroke-width="1" x1="336" y1="0" x2="336" y2="512" stroke="#449FDB" opacity="0.3"></line>
	<line stroke-width="1" x1="352" y1="0" x2="352" y2="512" stroke="#449FDB" opacity="1"></line>
	<line stroke-width="1" x1="368" y1="0" x2="368" y2="512" stroke="#449FDB" opacity="0.3"></line>
	<line stroke-width="1" x1="384" y1="0" x2="384" y2="512" stroke="#449FDB" opacity="1"></line>
	<line stroke-width="1" x1="400" y1="0" x2="400" y2="512" stroke="#449FDB" opacity="0.3"></line>
	<line stroke-width="1" x1="416" y1="0" x2="416" y2="512" stroke="#449FDB" opacity="1"></line>
	<line stroke-width="1" x1="432" y1="0" x2="432" y2="512" stroke="#449FDB" opacity="0.3"></line>
	<line stroke-width="1" x1="448" y1="0" x2="448" y2="512" stroke="#449FDB" opacity="1"></line>
	<line stroke-width="1" x1="464" y1="0" x2="464" y2="512" stroke="#449FDB" opacity="0.3"></line>
	<line stroke-width="1" x1="480" y1="0" x2="480" y2="512" stroke="#449FDB" opacity="1"></line>
	<line stroke-width="1" x1="496" y1="0" x2="496" y2="512" stroke="#449FDB" opacity="0.3"></line>
	<line stroke-width="1" x1="0" y1="16" x2="512" y2="16" stroke="#449FDB" opacity="0.3"></line>
	<line stroke-width="1" x1="0" y1="32" x2="512" y2="32" stroke="#449FDB" opacity="1"></line>
	<line stroke-width="1" x1="0" y1="48" x2="512" y2="48" stroke="#449FDB" opacity="0.3"></line>
	<line stroke-width="1" x1="0" y1="64" x2="512" y2="64" stroke="#449FDB" opacity="1"></line>
	<line stroke-width="1" x1="0" y1="80" x2="512" y2="80" stroke="#449FDB" opacity="0.3"></line>
	<line stroke-width="1" x1="0" y1="96" x2="512" y2="96" stroke="#449FDB" opacity="1"></line>
	<line stroke-width="1" x1="0" y1="112" x2="512" y2="112" stroke="#449FDB" opacity="0.3"></line>
	<line stroke-width="1" x1="0" y1="128" x2="512" y2="128" stroke="#449FDB" opacity="1"></line>
	<line stroke-width="1" x1="0" y1="144" x2="512" y2="144" stroke="#449FDB" opacity="0.3"></line>
	<line stroke-width="1" x1="0" y1="160" x2="512" y2="160" stroke="#449FDB" opacity="1"></line>
	<line stroke-width="1" x1="0" y1="176" x2="512" y2="176" stroke="#449FDB" opacity="0.3"></line>
	<line stroke-width="1" x1="0" y1="192" x2="512" y2="192" stroke="#449FDB" opacity="1"></line>
	<line stroke-width="1" x1="0" y1="208" x2="512" y2="208" stroke="#449FDB" opacity="0.3"></line>
	<line stroke-width="1" x1="0" y1="224" x2="512" y2="224" stroke="#449FDB" opacity="1"></line>
	<line stroke-width="1" x1="0" y1="240" x2="512" y2="240" stroke="#449FDB" opacity="0.3"></line>
	<line stroke-width="1" x1="0" y1="256" x2="512" y2="256" stroke="#449FDB" opacity="1"></line>
	<line stroke-width="1" x1="0" y1="272" x2="512" y2="272" stroke="#449FDB" opacity="0.3"></line>
	<line stroke-width="1" x1="0" y1="288" x2="512" y2="288" stroke="#449FDB" opacity="1"></line>
	<line stroke-width="1" x1="0" y1="304" x2="512" y2="304" stroke="#449FDB" opacity="0.3"></line>
	<line stroke-width="1" x1="0" y1="320" x2="512" y2="320" stroke="#449FDB" opacity="1"></line>
	<line stroke-width="1" x1="0" y1="336" x2="512" y2="336" stroke="#449FDB" opacity="0.3"></line>
	<line stroke-width="1" x1="0" y1="352" x2="512" y2="352" stroke="#449FDB" opacity="1"></line>
	<line stroke-width="1" x1="0" y1="368" x2="512" y2="368" stroke="#449FDB" opacity="0.3"></line>
	<line stroke-width="1" x1="0" y1="384" x2="512" y2="384" stroke="#449FDB" opacity="1"></line>
	<line stroke-width="1" x1="0" y1="400" x2="512" y2="400" stroke="#449FDB" opacity="0.3"></line>
	<line stroke-width="1" x1="0" y1="416" x2="512" y2="416" stroke="#449FDB" opacity="1"></line>
	<line stroke-width="1" x1="0" y1="432" x2="512" y2="432" stroke="#449FDB" opacity="0.3"></line>
	<line stroke-width="1" x1="0" y1="448" x2="512" y2="448" stroke="#449FDB" opacity="1"></line>
	<line stroke-width="1" x1="0" y1="464" x2="512" y2="464" stroke="#449FDB" opacity="0.3"></line>
	<line stroke-width="1" x1="0" y1="480" x2="512" y2="480" stroke="#449FDB" opacity="1"></line>
	<line stroke-width="1" x1="0" y1="496" x2="512" y2="496" stroke="#449FDB" opacity="0.3"></line>
</g>
	<path d="M17.558 12.719c-1.22-0.071-2.628 0.002-4.258 0.28l3.76 6.778 14.939-4.102c-0.161-0.383-0.396-0.757-0.708-1.119-1.546-1.79-4.898-3.387-8.55-4.107l0-0.001c-3.583-0.84-7.463-0.804-11.436-0.205-0.143 0.021-0.286 0.044-0.428 0.068l-1.321-2.447c-1.286 0.172-2.494 0.439-3.613 0.796l1.258 2.631c-2.055 0.796-3.741 1.93-4.958 3.295-2.007 2.283-2.8 5.153-1.836 7.948 0.194 0.564 0.456 1.099 0.779 1.6l14.94-4.103-4.148-7.683c0.142-0.027 0.287-0.055 0.435-0.082 6.709-1.197 10.378 0.652 12.388 2.62l-5.111 1.239-2.133-3.407zM5.46 19.575c-0.461-2.105-0.094-4.454 2.825-6.019l2.286 4.78-5.111 1.239z" fill="#000000"></path>
</svg>
