<?xml version="1.0" encoding="UTF-8" standalone="no"?>
<!-- Created with Inkscape (http://www.inkscape.org/) -->

<svg
   xmlns:dc="http://purl.org/dc/elements/1.1/"
   xmlns:cc="http://creativecommons.org/ns#"
   xmlns:rdf="http://www.w3.org/1999/02/22-rdf-syntax-ns#"
   xmlns:svg="http://www.w3.org/2000/svg"
   xmlns="http://www.w3.org/2000/svg"
   xmlns:sodipodi="http://sodipodi.sourceforge.net/DTD/sodipodi-0.dtd"
   xmlns:inkscape="http://www.inkscape.org/namespaces/inkscape"
   width="48"
   height="48"
   id="svg2"
   version="1.1"
   inkscape:version="0.48.3.1 r9886"
   sodipodi:docname="donaciones.svg">
  <defs
     id="defs4" />
  <sodipodi:namedview
     id="base"
     pagecolor="#ffffff"
     bordercolor="#666666"
     borderopacity="1.0"
     inkscape:pageopacity="0.0"
     inkscape:pageshadow="2"
     inkscape:zoom="5.12"
     inkscape:cx="25.031915"
     inkscape:cy="19.069125"
     inkscape:document-units="px"
     inkscape:current-layer="layer1"
     showgrid="false"
     inkscape:window-width="1024"
     inkscape:window-height="578"
     inkscape:window-x="0"
     inkscape:window-y="0"
     inkscape:window-maximized="1" />
  <metadata
     id="metadata7">
    <rdf:RDF>
      <cc:Work
         rdf:about="">
        <dc:format>image/svg+xml</dc:format>
        <dc:type
           rdf:resource="http://purl.org/dc/dcmitype/StillImage" />
        <dc:title></dc:title>
      </cc:Work>
    </rdf:RDF>
  </metadata>
  <g
     inkscape:label="Capa 1"
     inkscape:groupmode="layer"
     id="layer1"
     transform="translate(0,-1004.3622)">
    <path
       style="fill:#000000"
       d="m 12.202534,1047.9784 c 0.46583,-2.1209 -0.0665,-3.8969 -2.09818,-7 -1.4972997,-2.287 -3.0924297,-4.1581 -3.5447297,-4.1581 -0.4523,0 -0.82237,-1.125 -0.82237,-2.5 0,-1.375 0.42889,-2.5 0.95308,-2.5 0.5242,0 1.69711,-1.5679 2.60646,-3.4842 2.7802897,-5.859 10.3593797,-9.1579 17.4404597,-7.5912 2.67766,0.5924 4.2636,0.3207 6.75,-1.1567 l 3.25,-1.931 0,4.4998 c 0,6.0407 0.76372,7.6633 3.60699,7.6633 2.16949,0 2.39301,0.4203 2.39301,4.5 0,3.9981 -0.25094,4.5007 -2.25,4.5063 -2.7999,0.01 -6.17479,5.352 -5.83756,9.2437 0.21937,2.5317 -0.0456,2.75 -3.33707,2.75 -2.51144,0 -3.57537,-0.4463 -3.57537,-1.5 0,-1.1111 -1.16667,-1.5 -4.5,-1.5 -3.33333,0 -4.5,0.3889 -4.5,1.5 0,1.054 -1.06438,1.5 -3.57945,1.5 -3.41269,0 -3.55038,-0.1324 -2.95527,-2.8419 z m 17.12417,-22.3028 c 0.8717,-1.4105 -4.82062,-3.0345 -8.32904,-2.3763 -1.79323,0.3364 -3.26041,1.202 -3.26041,1.9235 0,1.5001 10.68415,1.9176 11.58945,0.4528 z m -10.03913,-9.2141 c -2.98652,-2.9865 -3.23405,-5.6116 -0.80032,-8.4878 4.32241,-5.1082 11.65398,-2.657 11.46941,3.8345 -0.10842,3.8133 -1.59193,5.6042 -5.41909,6.5421 -2.10076,0.5148 -3.26545,0.096 -5.25,-1.8888 z m 7.77984,-3.0592 c 0.76849,-2.0026 -0.94562,-3.9435 -2.84058,-3.2164 -1.25539,0.4818 -1.55752,0.2538 -1.1323,-0.8542 0.7392,-1.9264 -0.73882,-1.9615 -2.32092,-0.055 -1.73671,2.0925 -0.238,3.8155 2.81184,3.2324 2.29549,-0.4388 2.40488,-0.3469 0.89833,0.7547 -0.94349,0.6899 -1.45344,1.5164 -1.13322,1.8366 0.83849,0.8385 3.14846,-0.2168 3.71685,-1.6979 z"
       id="path2996"
       inkscape:connector-curvature="0" />
  </g>
</svg>
