<?xml version="1.0" encoding="utf-8"?>
<!-- Generated by IcoMoon.io -->
<!DOCTYPE svg PUBLIC "-//W3C//DTD SVG 1.1//EN" "http://www.w3.org/Graphics/SVG/1.1/DTD/svg11.dtd">
<svg version="1.1" xmlns="http://www.w3.org/2000/svg" xmlns:xlink="http://www.w3.org/1999/xlink" width="32" height="32" viewBox="0 0 32 32">
<g>
	<line stroke-width="1" x1="16" y1="0" x2="16" y2="512" stroke="#449FDB" opacity="0.3"></line>
	<line stroke-width="1" x1="32" y1="0" x2="32" y2="512" stroke="#449FDB" opacity="1"></line>
	<line stroke-width="1" x1="48" y1="0" x2="48" y2="512" stroke="#449FDB" opacity="0.3"></line>
	<line stroke-width="1" x1="64" y1="0" x2="64" y2="512" stroke="#449FDB" opacity="1"></line>
	<line stroke-width="1" x1="80" y1="0" x2="80" y2="512" stroke="#449FDB" opacity="0.3"></line>
	<line stroke-width="1" x1="96" y1="0" x2="96" y2="512" stroke="#449FDB" opacity="1"></line>
	<line stroke-width="1" x1="112" y1="0" x2="112" y2="512" stroke="#449FDB" opacity="0.3"></line>
	<line stroke-width="1" x1="128" y1="0" x2="128" y2="512" stroke="#449FDB" opacity="1"></line>
	<line stroke-width="1" x1="144" y1="0" x2="144" y2="512" stroke="#449FDB" opacity="0.3"></line>
	<line stroke-width="1" x1="160" y1="0" x2="160" y2="512" stroke="#449FDB" opacity="1"></line>
	<line stroke-width="1" x1="176" y1="0" x2="176" y2="512" stroke="#449FDB" opacity="0.3"></line>
	<line stroke-width="1" x1="192" y1="0" x2="192" y2="512" stroke="#449FDB" opacity="1"></line>
	<line stroke-width="1" x1="208" y1="0" x2="208" y2="512" stroke="#449FDB" opacity="0.3"></line>
	<line stroke-width="1" x1="224" y1="0" x2="224" y2="512" stroke="#449FDB" opacity="1"></line>
	<line stroke-width="1" x1="240" y1="0" x2="240" y2="512" stroke="#449FDB" opacity="0.3"></line>
	<line stroke-width="1" x1="256" y1="0" x2="256" y2="512" stroke="#449FDB" opacity="1"></line>
	<line stroke-width="1" x1="272" y1="0" x2="272" y2="512" stroke="#449FDB" opacity="0.3"></line>
	<line stroke-width="1" x1="288" y1="0" x2="288" y2="512" stroke="#449FDB" opacity="1"></line>
	<line stroke-width="1" x1="304" y1="0" x2="304" y2="512" stroke="#449FDB" opacity="0.3"></line>
	<line stroke-width="1" x1="320" y1="0" x2="320" y2="512" stroke="#449FDB" opacity="1"></line>
	<line stroke-width="1" x1="336" y1="0" x2="336" y2="512" stroke="#449FDB" opacity="0.3"></line>
	<line stroke-width="1" x1="352" y1="0" x2="352" y2="512" stroke="#449FDB" opacity="1"></line>
	<line stroke-width="1" x1="368" y1="0" x2="368" y2="512" stroke="#449FDB" opacity="0.3"></line>
	<line stroke-width="1" x1="384" y1="0" x2="384" y2="512" stroke="#449FDB" opacity="1"></line>
	<line stroke-width="1" x1="400" y1="0" x2="400" y2="512" stroke="#449FDB" opacity="0.3"></line>
	<line stroke-width="1" x1="416" y1="0" x2="416" y2="512" stroke="#449FDB" opacity="1"></line>
	<line stroke-width="1" x1="432" y1="0" x2="432" y2="512" stroke="#449FDB" opacity="0.3"></line>
	<line stroke-width="1" x1="448" y1="0" x2="448" y2="512" stroke="#449FDB" opacity="1"></line>
	<line stroke-width="1" x1="464" y1="0" x2="464" y2="512" stroke="#449FDB" opacity="0.3"></line>
	<line stroke-width="1" x1="480" y1="0" x2="480" y2="512" stroke="#449FDB" opacity="1"></line>
	<line stroke-width="1" x1="496" y1="0" x2="496" y2="512" stroke="#449FDB" opacity="0.3"></line>
	<line stroke-width="1" x1="0" y1="16" x2="512" y2="16" stroke="#449FDB" opacity="0.3"></line>
	<line stroke-width="1" x1="0" y1="32" x2="512" y2="32" stroke="#449FDB" opacity="1"></line>
	<line stroke-width="1" x1="0" y1="48" x2="512" y2="48" stroke="#449FDB" opacity="0.3"></line>
	<line stroke-width="1" x1="0" y1="64" x2="512" y2="64" stroke="#449FDB" opacity="1"></line>
	<line stroke-width="1" x1="0" y1="80" x2="512" y2="80" stroke="#449FDB" opacity="0.3"></line>
	<line stroke-width="1" x1="0" y1="96" x2="512" y2="96" stroke="#449FDB" opacity="1"></line>
	<line stroke-width="1" x1="0" y1="112" x2="512" y2="112" stroke="#449FDB" opacity="0.3"></line>
	<line stroke-width="1" x1="0" y1="128" x2="512" y2="128" stroke="#449FDB" opacity="1"></line>
	<line stroke-width="1" x1="0" y1="144" x2="512" y2="144" stroke="#449FDB" opacity="0.3"></line>
	<line stroke-width="1" x1="0" y1="160" x2="512" y2="160" stroke="#449FDB" opacity="1"></line>
	<line stroke-width="1" x1="0" y1="176" x2="512" y2="176" stroke="#449FDB" opacity="0.3"></line>
	<line stroke-width="1" x1="0" y1="192" x2="512" y2="192" stroke="#449FDB" opacity="1"></line>
	<line stroke-width="1" x1="0" y1="208" x2="512" y2="208" stroke="#449FDB" opacity="0.3"></line>
	<line stroke-width="1" x1="0" y1="224" x2="512" y2="224" stroke="#449FDB" opacity="1"></line>
	<line stroke-width="1" x1="0" y1="240" x2="512" y2="240" stroke="#449FDB" opacity="0.3"></line>
	<line stroke-width="1" x1="0" y1="256" x2="512" y2="256" stroke="#449FDB" opacity="1"></line>
	<line stroke-width="1" x1="0" y1="272" x2="512" y2="272" stroke="#449FDB" opacity="0.3"></line>
	<line stroke-width="1" x1="0" y1="288" x2="512" y2="288" stroke="#449FDB" opacity="1"></line>
	<line stroke-width="1" x1="0" y1="304" x2="512" y2="304" stroke="#449FDB" opacity="0.3"></line>
	<line stroke-width="1" x1="0" y1="320" x2="512" y2="320" stroke="#449FDB" opacity="1"></line>
	<line stroke-width="1" x1="0" y1="336" x2="512" y2="336" stroke="#449FDB" opacity="0.3"></line>
	<line stroke-width="1" x1="0" y1="352" x2="512" y2="352" stroke="#449FDB" opacity="1"></line>
	<line stroke-width="1" x1="0" y1="368" x2="512" y2="368" stroke="#449FDB" opacity="0.3"></line>
	<line stroke-width="1" x1="0" y1="384" x2="512" y2="384" stroke="#449FDB" opacity="1"></line>
	<line stroke-width="1" x1="0" y1="400" x2="512" y2="400" stroke="#449FDB" opacity="0.3"></line>
	<line stroke-width="1" x1="0" y1="416" x2="512" y2="416" stroke="#449FDB" opacity="1"></line>
	<line stroke-width="1" x1="0" y1="432" x2="512" y2="432" stroke="#449FDB" opacity="0.3"></line>
	<line stroke-width="1" x1="0" y1="448" x2="512" y2="448" stroke="#449FDB" opacity="1"></line>
	<line stroke-width="1" x1="0" y1="464" x2="512" y2="464" stroke="#449FDB" opacity="0.3"></line>
	<line stroke-width="1" x1="0" y1="480" x2="512" y2="480" stroke="#449FDB" opacity="1"></line>
	<line stroke-width="1" x1="0" y1="496" x2="512" y2="496" stroke="#449FDB" opacity="0.3"></line>
</g>
	<path d="M31.954 10.442l-0.371 2.377c0 0-0.53-4.402-1.179-6.047-0.995-2.521-1.438-2.501-1.441-2.498 0.667 1.694 0.546 2.604 0.546 2.604s-1.181-3.219-4.303-4.243c-3.459-1.134-5.33-0.824-5.547-0.765-0.033-0-0.064-0-0.095-0 0.026 0.002 0.050 0.005 0.076 0.007-0.001 0.001-0.003 0.001-0.003 0.002 0.014 0.017 3.822 0.666 4.497 1.594 0 0-1.617 0-3.227 0.464-0.073 0.021 5.923 0.749 7.148 6.74 0 0-0.657-1.371-1.47-1.604 0.535 1.626 0.397 4.712-0.112 6.245-0.066 0.197-0.133-0.853-1.135-1.305 0.321 2.301-0.019 5.952-1.616 6.957-0.124 0.078 1.001-3.603 0.226-2.18-4.46 6.838-9.731 3.155-12.101 1.535 1.215 0.264 3.52-0.041 4.541-0.8 0.001-0.001 0.002-0.002 0.004-0.003 1.108-0.758 1.765-1.311 2.354-1.18s0.982-0.46 0.524-0.985c-0.459-0.526-1.572-1.249-3.079-0.855-1.063 0.278-2.379 1.454-4.389 0.264-1.543-0.914-1.688-1.673-1.702-2.199 0.038-0.186 0.086-0.361 0.143-0.52 0.178-0.496 0.716-0.646 1.015-0.764 0.508 0.087 0.946 0.246 1.405 0.481 0.006-0.153 0.008-0.356-0.001-0.586 0.044-0.088 0.017-0.352-0.054-0.674-0.041-0.322-0.107-0.655-0.211-0.959 0-0 0.001-0 0.001-0 0.002-0.001 0.003-0.001 0.005-0.002s0.005-0.004 0.007-0.006c0-0.001 0.001-0.001 0.001-0.002 0.003-0.004 0.005-0.008 0.006-0.015 0.032-0.144 0.376-0.423 0.804-0.722 0.383-0.268 0.834-0.553 1.19-0.774 0.314-0.195 0.554-0.34 0.605-0.378 0.019-0.015 0.042-0.032 0.068-0.051 0.005-0.004 0.009-0.007 0.014-0.011 0.003-0.002 0.006-0.005 0.009-0.007 0.169-0.135 0.421-0.389 0.474-0.924 0-0.001 0-0.002 0-0.004 0.002-0.016 0.003-0.032 0.004-0.048 0.001-0.011 0.002-0.023 0.002-0.034 0-0.009 0.001-0.018 0.001-0.027 0.001-0.021 0.002-0.043 0.002-0.065 0-0.001 0-0.002 0-0.004 0.001-0.052-0-0.106-0.003-0.163-0.002-0.032-0.004-0.060-0.009-0.086-0-0.001-0.001-0.003-0.001-0.004-0.001-0.003-0.001-0.005-0.002-0.008-0.001-0.005-0.002-0.009-0.004-0.013-0-0.001-0-0.001-0.001-0.001-0.002-0.005-0.004-0.010-0.005-0.014-0-0-0-0-0-0.001-0.055-0.128-0.26-0.177-1.108-0.191-0.001-0-0.002-0-0.002-0v0c-0.346-0.006-0.798-0.006-1.391-0.004-1.039 0.004-1.613-1.016-1.797-1.41 0.251-1.389 0.977-2.379 2.17-3.051 0.023-0.013 0.018-0.023-0.009-0.031 0.233-0.141-2.82-0.004-4.225 1.782-1.247-0.31-2.333-0.289-3.269-0.069-0.18-0.005-0.404-0.027-0.67-0.083-0.623-0.564-1.514-1.606-1.562-2.85 0 0-0.003 0.002-0.008 0.006-0.001-0.012-0.002-0.024-0.002-0.036 0 0-1.897 1.458-1.613 5.434-0.001 0.064-0.002 0.125-0.004 0.184-0.514 0.696-0.768 1.282-0.787 1.411-0.455 0.926-0.917 2.32-1.292 4.437 0 0 0.263-0.833 0.79-1.777-0.388 1.188-0.693 3.036-0.514 5.808 0 0 0.047-0.615 0.215-1.5 0.131 1.719 0.704 3.841 2.152 6.337 2.78 4.791 7.052 7.211 11.775 7.582 0.839 0.069 1.689 0.071 2.544 0.006 0.079-0.006 0.157-0.011 0.236-0.018 0.968-0.068 1.942-0.214 2.914-0.449 13.287-3.212 11.842-19.256 11.842-19.256z" fill="#000000"></path>
</svg>
