<?xml version="1.0" encoding="UTF-8" standalone="no"?>
<!-- Created with Inkscape (http://www.inkscape.org/) -->
<svg xmlns:dc="http://purl.org/dc/elements/1.1/" xmlns:cc="http://creativecommons.org/ns#" xmlns:rdf="http://www.w3.org/1999/02/22-rdf-syntax-ns#" xmlns:svg="http://www.w3.org/2000/svg" xmlns="http://www.w3.org/2000/svg" xmlns:sodipodi="http://sodipodi.sourceforge.net/DTD/sodipodi-0.dtd" xmlns:inkscape="http://www.inkscape.org/namespaces/inkscape" id="svg2226" sodipodi:version="0.32" inkscape:version="0.46" width="99" height="128" version="1.0" sodipodi:docbase="C:\Documents and Settings\Administrador\Escritorio" sodipodi:docname="Huella_lobo.svg" inkscape:output_extension="org.inkscape.output.svg.inkscape">
  <metadata id="metadata2231">
    <rdf:RDF>
      <cc:Work rdf:about="">
        <dc:format>image/svg+xml</dc:format>
        <dc:type rdf:resource="http://purl.org/dc/dcmitype/StillImage"/>
        <dc:creator>
          <cc:Agent>
            <dc:title>Lobo de Hokkaido</dc:title>
          </cc:Agent>
        </dc:creator>
        <cc:license rdf:resource="http://web.resource.org/cc/PublicDomain"/>
      </cc:Work>
      <cc:License rdf:about="http://web.resource.org/cc/PublicDomain">
        <cc:permits rdf:resource="http://web.resource.org/cc/Reproduction"/>
        <cc:permits rdf:resource="http://web.resource.org/cc/Distribution"/>
        <cc:permits rdf:resource="http://web.resource.org/cc/DerivativeWorks"/>
      </cc:License>
    </rdf:RDF>
  </metadata>
  <defs id="defs2229">
    <inkscape:perspective sodipodi:type="inkscape:persp3d" inkscape:vp_x="0 : 64 : 1" inkscape:vp_y="0 : 1000 : 0" inkscape:vp_z="99 : 64 : 1" inkscape:persp3d-origin="49.5 : 42.666667 : 1" id="perspective2452"/>
  </defs>
  <sodipodi:namedview inkscape:window-height="659" inkscape:window-width="809" inkscape:pageshadow="2" inkscape:pageopacity="0.0" guidetolerance="10.0" gridtolerance="10.0" objecttolerance="10.0" borderopacity="1.0" bordercolor="#666666" pagecolor="#ffffff" id="base" inkscape:zoom="2.8284271" inkscape:cx="58.203982" inkscape:cy="56.013516" inkscape:window-x="367" inkscape:window-y="65" inkscape:current-layer="svg2226" showgrid="false"/>
  <path style="fill: rgb(0, 0, 0);" d="M 70.497376,124.36245 C 67.287879,123.40148 64.209568,121.52151 60.484538,119.43836 C 51.961668,114.6721 48.012398,114.56309 38.332388,118.82694 C 34.390198,120.56339 30.816519,122.2493 29.202542,122.2493 C 24.696961,122.2493 18.660437,118.06038 17.581754,113.73373 C 16.083733,107.7251 18.15453,102.92153 24.882068,96.799403 C 28.094562,93.876001 32.892186,88.039263 36.525558,84.614547 C 44.32112,77.266666 47.970225,74.881286 53.774595,76.44424 C 57.460775,77.436826 64.850949,84.831454 66.44194,86.998265 C 66.706352,87.358374 69.147198,90.410041 72.993778,93.479163 C 81.164618,99.998537 82.999998,103.02596 82.999998,109.98413 C 82.999998,119.75185 77.639886,126.49589 70.497376,124.36245 z M 9.9843979,83.128424 C 4.9585509,80.451784 0.66170894,73.090935 0.57186994,67.00398 C 0.49018794,61.46971 3.2605999,56.698004 6.8663569,56.162475 C 10.124333,55.678599 15.229542,59.415924 19.890196,65.454917 C 22.211557,68.462795 23.558058,71.770148 24,74.859433 C 24.758711,80.163017 23.663634,82.192798 20.282032,83.786277 C 17.409993,85.13964 13.568501,84.836411 9.9843979,83.128424 z M 83.286408,80.280003 C 80.278978,78.863944 76.740978,74.597651 76.436659,72.299195 C 76.147625,70.116185 76.354006,68.02557 78.249998,65.261709 C 79.614218,63.273034 82.752658,57.801767 84.283678,54.984584 C 86.835218,50.289593 87.334538,49.888357 90.271128,50.17328 C 94.820268,50.614663 98.322726,57.064738 98.253288,64.873116 C 98.228026,67.713923 97.88353,70.60661 96.907939,73.196014 C 95.980216,75.658366 92.81103,79.265638 91.413342,79.880561 C 89.330536,80.796905 86.371844,81.703291 83.286408,80.280003 z M 1.9999999,50.249227 C 1.9999999,49.662129 2.121543,48.811705 2.317362,47.914518 C 2.3663168,47.690221 2.6817031,46.19848 2.9246802,45.556555 C 3.1578072,44.643125 3.5231835,43.282263 3.9280371,42.959383 C 4.229559,42.699295 5.0623397,43.191929 5.2787068,43.436454 C 5.5379263,43.71689 6.0427384,45.108437 6.4753803,45.617949 C 6.9887295,46.543408 7.2515989,47.181827 7.3765237,48.190444 C 7.4851365,49.067361 7.7384289,50.046627 6.7624999,50.046627 C 5.4974999,50.046627 3.9417698,50.617578 3.1999999,51.184127 C 2.1416669,51.99246 1.9999999,51.909705 1.9999999,50.249227 z M 24.493472,50.664769 C 20.777112,48.647974 19.228876,46.043651 19.005577,39.799868 C 18.774787,33.466365 20.882757,27.826436 25.616958,21.814853 C 29.189115,17.278856 31.221641,16.912758 33.158968,17.494345 C 35.432628,18.1769 36.822006,19.188158 37.737801,21.617667 C 38.195698,22.832422 39.043137,29.904385 39.315581,31.964458 C 39.588025,34.024532 40.512986,43.898113 39.898419,45.975362 L 39.886275,46.017241 L 39.876478,46.045213 C 39.142529,47.933008 36.330962,50.062416 35.380309,50.622421 C 34.413385,51.19201 32.167234,51.959899 30.562909,51.944089 C 28.328309,51.922069 25.992145,51.478069 24.493472,50.664769 z M 55.999998,18.984127 C 59.215468,15.768659 62.534378,16.465875 67.460098,21.39159 C 72.275128,26.206621 74.999998,33.1234 74.999998,40.53077 C 74.999998,46.088545 71.033832,49.348735 66.583118,50.858881 C 62.106216,52.377913 60.587275,51.685349 57.038329,48.868018 C 54.404348,46.493024 54.058308,43.685543 53.672022,33.969345 C 53.424099,27.790103 53.919864,21.593593 55.999998,18.984127 z M 93.624068,47.184873 C 93.039131,46.70124 91.479561,46.463014 90.350801,46.463014 C 88.523451,46.463014 88.852938,45.573151 89.466528,42.234127 C 90.504928,36.583342 91.588188,36.338954 93.492688,41.325813 C 95.168538,45.713955 94.64219,48.551701 93.624068,47.184873 z M 30.353553,11.510327 C 30.707107,9.4751725 32.150415,5.4639107 34.434068,4.0388495 C 35.964566,3.0837774 35.999778,3.3489086 35.998018,8.1116823 C 35.996068,13.366475 35.84198,13.930662 32.90963,14.135812 C 30.810452,14.282672 30.353553,12.567194 30.353553,11.510327 z M 58.922166,12.079501 C 57.043976,11.717746 56.999998,10.195525 56.999998,6.914576 C 56.999998,2.319178 58.057408,1.9703567 60.927418,5.6189857 C 62.935048,8.1712673 63.940522,12.885557 62.426775,12.555052 C 61.535388,12.36043 60.159666,12.317854 58.922166,12.079501 z" id="path2237" sodipodi:nodetypes="cssssssssssccsssssccsssssssccsccccsssccssssscccssccsszcsccsssccsssccsssc"/>
</svg>