<?xml version="1.0" encoding="UTF-8" standalone="no"?>
<!-- Created with Inkscape (http://www.inkscape.org/) -->

<svg
   xmlns:dc="http://purl.org/dc/elements/1.1/"
   xmlns:cc="http://creativecommons.org/ns#"
   xmlns:rdf="http://www.w3.org/1999/02/22-rdf-syntax-ns#"
   xmlns:svg="http://www.w3.org/2000/svg"
   xmlns="http://www.w3.org/2000/svg"
   xmlns:sodipodi="http://sodipodi.sourceforge.net/DTD/sodipodi-0.dtd"
   xmlns:inkscape="http://www.inkscape.org/namespaces/inkscape"
   width="48"
   height="48"
   id="svg2"
   version="1.1"
   inkscape:version="0.48.3.1 r9886"
   sodipodi:docname="donaciones.svg">
  <defs
     id="defs4" />
  <sodipodi:namedview
     id="base"
     pagecolor="#ffffff"
     bordercolor="#666666"
     borderopacity="1.0"
     inkscape:pageopacity="0.0"
     inkscape:pageshadow="2"
     inkscape:zoom="5.12"
     inkscape:cx="25.031915"
     inkscape:cy="19.069125"
     inkscape:document-units="px"
     inkscape:current-layer="layer1"
     showgrid="false"
     inkscape:window-width="1024"
     inkscape:window-height="578"
     inkscape:window-x="0"
     inkscape:window-y="0"
     inkscape:window-maximized="1" />
  <metadata
     id="metadata7">
    <rdf:RDF>
      <cc:Work
         rdf:about="">
        <dc:format>image/svg+xml</dc:format>
        <dc:type
           rdf:resource="http://purl.org/dc/dcmitype/StillImage" />
        <dc:title></dc:title>
      </cc:Work>
    </rdf:RDF>
  </metadata>
  <g
     inkscape:label="Capa 1"
     inkscape:groupmode="layer"
     id="layer1"
     transform="translate(0,-1004.3622)">
    <path
       style="fill:#000000"
       d="m 2.9461381,1049.6817 c -0.5599969,-0.6422 -0.5599969,-8.5665 0,-9.2087 0.5899773,-0.6765 42.1505609,-0.6765 42.7405369,0 0.266241,0.3053 0.40835,1.9077 0.40835,4.6043 0,2.6967 -0.142109,4.2991 -0.40835,4.6044 -0.589976,0.6764 -42.1505596,0.6764 -42.7405369,0 z m 0.1263942,-16.5332 c -0.67779,-0.7771 -0.7837162,-8.7001 -0.1263942,-9.4538 0.5899773,-0.6766 42.1505609,-0.6766 42.7405369,0 0.657323,0.7537 0.551397,8.6767 -0.126394,9.4538 -0.474414,0.544 -2.871113,0.6132 -21.243874,0.6132 -18.3727628,0 -20.7694609,-0.069 -21.2438747,-0.6132 z m -0.1263942,-16.6334 c -0.657322,-0.7537 -0.5513958,-8.6768 0.1263942,-9.4539 0.4744138,-0.544 2.8711119,-0.6131 21.2438747,-0.6131 18.372761,0 20.76946,0.069 21.243874,0.6131 0.677791,0.7771 0.783717,8.7002 0.126394,9.4539 -0.589976,0.6765 -42.1505596,0.6765 -42.7405369,0 z"
       id="path3066"
       inkscape:connector-curvature="0" />
  </g>
</svg>
